# xmcd
#
# Track frame offsets:
# 150
# 17976
# 39824
# 65545
# 82353
# 100597
# 126881
# 151756
# 173925
# 198918
# 216198
# 231469
# 254012
# 272574
# 289683
# 305629
#
# Disc length: 4307 seconds
#
#
# Revision: 0
# Processed by: cddbd v1.5.2PL0 Copyright (c) Steve Scherf et al.
# Submitted via: FreeRIP 2.51 
#
DISCID=e710d110
DTITLE=Ben Harper and The Innocent Criminals - Live From Mars
DYEAR=2001
DGENRE=Blues
TTITLE0=Burn One Down
TTITLE1=Faded
TTITLE2=Glory and Consequence
TTITLE3=Another Lonely Day
TTITLE4=Beloved One
TTITLE5=Sexual Healing
TTITLE6=Excuse Me Mister
TTITLE7=Ground On Down
TTITLE8=Whipping Boy
TTITLE9=Walk Away
TTITLE10=Forever
TTITLE11=Gold To Me
TTITLE12=Steal My Kisses
TTITLE13=Waiting On An Angel
TTITLE14=Burn One Down
TTITLE15=The Woman In You
EXTD=
EXTT0=
EXTT1=
EXTT2=
EXTT3=
EXTT4=
EXTT5=
EXTT6=
EXTT7=
EXTT8=
EXTT9=
EXTT10=
EXTT11=
EXTT12=
EXTT13=
EXTT14=
EXTT15=
PLAYORDER=
